<?xml version="1.0" encoding="utf-8"?>
<!-- Uploaded to: SVG Repo, www.svgrepo.com, Generator: SVG Repo Mixer Tools -->
<svg fill="#000000" width="800px" height="800px" viewBox="0 0 32 32" version="1.1" xmlns="http://www.w3.org/2000/svg">
<title>lightning-sword</title>
<path d="M11.868 23.416l17.041-17.041 2.167-5.432-5.432 2.167-17.041 17.041zM3.036 19.562l0-0-0-0zM5.703 16.895l-2.667 2.667 3.73 3.73-5.878 5.878 1.932 1.932 5.878-5.878 3.733 3.733 2.667-2.667c-3.934-2.271-7.149-5.505-9.395-9.395zM9.052 12.062l3.774 3.496 2.361-2.361-1.97-1.825 1.943-1.799-13.913-8.336 9.746 9.028zM22.964 20.4l-3.947-3.657-2.361 2.361 2.297 2.128-1.81 1.676 13.913 8.336-9.9-9.171z"></path>
</svg>